{
  "accessors": [
    {
      "bufferView": 2,
      "componentType": 5126,
      "count": 466,
      "max": [
        0.055348776280879974,
        -6.854534149169922e-07,
        0.05534876510500908
      ],
      "min": [
        -0.05534878373146057,
        -0.4366331994533539,
        -0.05534879490733147
      ],
      "type": "VEC3"
    },
    {
      "bufferView": 2,
      "byteOffset": 5592,
      "componentType": 5126,
      "count": 466,
      "max": [
        0.9690315127372742,
        0.963873028755188,
        0.969031572341919
      ],
      "min": [
        -0.9690315127372742,
        -1.0,
        -0.9690315127372742
      ],
      "type": "VEC3"
    },
    {
      "bufferView": 3,
      "componentType": 5126,
      "count": 466,
      "max": [
        0.9903337359428406,
        0.9587481617927551,
        0.9547563791275024,
        1.0
      ],
      "min": [
        -0.9546176195144653,
        -0.9586725234985352,
        -0.9692665934562683,
        1.0
      ],
      "type": "VEC4"
    },
    {
      "bufferView": 1,
      "componentType": 5126,
      "count": 466,
      "max": [
        0.843176007270813,
        0.4280585050582886
      ],
      "min": [
        0.030683130025863647,
        0.007238566875457764
      ],
      "type": "VEC2"
    },
    {
      "bufferView": 1,
      "byteOffset": 3728,
      "componentType": 5126,
      "count": 466,
      "max": [
        0.843176007270813,
        0.4280585050582886
      ],
      "min": [
        0.030683130025863647,
        0.007238566875457764
      ],
      "type": "VEC2"
    },
    {
      "bufferView": 1,
      "byteOffset": 7456,
      "componentType": 5126,
      "count": 466,
      "max": [
        0.843176007270813,
        0.4280585050582886
      ],
      "min": [
        0.030683130025863647,
        0.007238566875457764
      ],
      "type": "VEC2"
    },
    {
      "bufferView": 1,
      "byteOffset": 11184,
      "componentType": 5126,
      "count": 466,
      "max": [
        0.843176007270813,
        0.4280585050582886
      ],
      "min": [
        0.030683130025863647,
        0.007238566875457764
      ],
      "type": "VEC2"
    },
    {
      "bufferView": 0,
      "componentType": 5125,
      "count": 1536,
      "type": "SCALAR"
    },
    {
      "bufferView": 2,
      "byteOffset": 11184,
      "componentType": 5126,
      "count": 290,
      "max": [
        0.1366230845451355,
        2.027324676513672,
        0.1366230845451355
      ],
      "min": [
        -0.1366230845451355,
        1.9593420028686523,
        -0.1366230845451355
      ],
      "type": "VEC3"
    },
    {
      "bufferView": 2,
      "byteOffset": 14664,
      "componentType": 5126,
      "count": 290,
      "max": [
        1.0,
        0.6201415061950684,
        1.0
      ],
      "min": [
        -1.0,
        -1.0,
        -1.0
      ],
      "type": "VEC3"
    },
    {
      "bufferView": 3,
      "byteOffset": 7456,
      "componentType": 5126,
      "count": 290,
      "max": [
        0.7023716568946838,
        0.9582998752593994,
        0.6874368190765381,
        1.0
      ],
      "min": [
        -0.9524387717247009,
        -1.0,
        -0.9761218428611755,
        1.0
      ],
      "type": "VEC4"
    },
    {
      "bufferView": 1,
      "byteOffset": 14912,
      "componentType": 5126,
      "count": 290,
      "max": [
        0.6074789762496948,
        0.9960812926292419
      ],
      "min": [
        0.004329542629420757,
        0.38477128744125366
      ],
      "type": "VEC2"
    },
    {
      "bufferView": 1,
      "byteOffset": 17232,
      "componentType": 5126,
      "count": 290,
      "max": [
        0.6074789762496948,
        0.9960812926292419
      ],
      "min": [
        0.004329542629420757,
        0.38477128744125366
      ],
      "type": "VEC2"
    },
    {
      "bufferView": 1,
      "byteOffset": 19552,
      "componentType": 5126,
      "count": 290,
      "max": [
        0.6074789762496948,
        0.9960812926292419
      ],
      "min": [
        0.004329542629420757,
        0.38477128744125366
      ],
      "type": "VEC2"
    },
    {
      "bufferView": 1,
      "byteOffset": 21872,
      "componentType": 5126,
      "count": 290,
      "max": [
        0.6074789762496948,
        0.9960812926292419
      ],
      "min": [
        0.004329542629420757,
        0.38477128744125366
      ],
      "type": "VEC2"
    },
    {
      "bufferView": 0,
      "byteOffset": 6144,
      "componentType": 5125,
      "count": 1434,
      "type": "SCALAR"
    },
    {
      "bufferView": 2,
      "byteOffset": 18144,
      "componentType": 5126,
      "count": 655,
      "max": [
        0.7050572633743286,
        2.0530173778533936,
        0.8027766346931458
      ],
      "min": [
        -0.707591712474823,
        2.0026497840881348,
        -0.44406142830848694
      ],
      "type": "VEC3"
    },
    {
      "bufferView": 2,
      "byteOffset": 26004,
      "componentType": 5126,
      "count": 655,
      "max": [
        0.9432263970375061,
        1.0,
        0.9438556432723999
      ],
      "min": [
        -0.9052124619483948,
        -1.0,
        -0.8682188391685486
      ],
      "type": "VEC3"
    },
    {
      "bufferView": 3,
      "byteOffset": 12096,
      "componentType": 5126,
      "count": 655,
      "max": [
        0.9999485611915588,
        0.8286743760108948,
        0.9999483823776245,
        1.0
      ],
      "min": [
        -1.0,
        -0.836030900478363,
        -0.9999107122421265,
        1.0
      ],
      "type": "VEC4"
    },
    {
      "bufferView": 1,
      "byteOffset": 24192,
      "componentType": 5126,
      "count": 655,
      "max": [
        0.9848868250846863,
        0.9749258160591125
      ],
      "min": [
        0.008188718929886818,
        0.012487953528761864
      ],
      "type": "VEC2"
    },
    {
      "bufferView": 1,
      "byteOffset": 29432,
      "componentType": 5126,
      "count": 655,
      "max": [
        0.9848868250846863,
        0.9749258160591125
      ],
      "min": [
        0.008188718929886818,
        0.012487953528761864
      ],
      "type": "VEC2"
    },
    {
      "bufferView": 1,
      "byteOffset": 34672,
      "componentType": 5126,
      "count": 655,
      "max": [
        0.9848868250846863,
        0.9749258160591125
      ],
      "min": [
        0.008188718929886818,
        0.012487953528761864
      ],
      "type": "VEC2"
    },
    {
      "bufferView": 1,
      "byteOffset": 39912,
      "componentType": 5126,
      "count": 655,
      "max": [
        0.9848868250846863,
        0.9749258160591125
      ],
      "min": [
        0.008188718929886818,
        0.012487953528761864
      ],
      "type": "VEC2"
    },
    {
      "bufferView": 0,
      "byteOffset": 11880,
      "componentType": 5125,
      "count": 2844,
      "type": "SCALAR"
    },
    {
      "bufferView": 4,
      "componentType": 5126,
      "count": 60,
      "max": [
        2.5
      ],
      "min": [
        0.0416666679084301
      ],
      "type": "SCALAR"
    },
    {
      "bufferView": 5,
      "componentType": 5126,
      "count": 60,
      "max": [
        0.0,
        1.0,
        -0.0,
        1.0
      ],
      "min": [
        0.0,
        -1.0,
        -0.0,
        1.1924880638503055e-08
      ],
      "type": "VEC4"
    },
    {
      "bufferView": 4,
      "byteOffset": 240,
      "componentType": 5126,
      "count": 61,
      "max": [
        2.5
      ],
      "min": [
        0.0
      ],
      "type": "SCALAR"
    },
    {
      "bufferView": 5,
      "byteOffset": 960,
      "componentType": 5126,
      "count": 61,
      "max": [
        0.0,
        1.0,
        -0.0,
        1.0
      ],
      "min": [
        0.0,
        -1.0,
        -0.0,
        1.1924880638503055e-08
      ],
      "type": "VEC4"
    }
  ],
  "animations": [
    {
      "channels": [
        {
          "sampler": 0,
          "target": {
            "node": 7,
            "path": "rotation"
          }
        }
      ],
      "name": "Action",
      "samplers": [
        {
          "input": 24,
          "interpolation": "LINEAR",
          "output": 25
        }
      ]
    },
    {
      "channels": [
        {
          "sampler": 0,
          "target": {
            "node": 7,
            "path": "rotation"
          }
        }
      ],
      "name": "Cylinder.001Action",
      "samplers": [
        {
          "input": 26,
          "interpolation": "LINEAR",
          "output": 27
        }
      ]
    }
  ],
  "asset": {
    "extras": {
      "author": "kii (https://sketchfab.com/_kii)",
      "license": "CC-BY-4.0 (http://creativecommons.org/licenses/by/4.0/)",
      "source": "https://sketchfab.com/3d-models/ceiling-fan-1381483fce6542bd8755baf37752f89e",
      "title": "Ceiling Fan"
    },
    "generator": "Sketchfab-15.0.0",
    "version": "2.0"
  },
  "bufferViews": [
    {
      "buffer": 0,
      "byteLength": 23256,
      "name": "floatBufferViews",
      "target": 34963
    },
    {
      "buffer": 0,
      "byteLength": 45152,
      "byteOffset": 23256,
      "byteStride": 8,
      "name": "floatBufferViews",
      "target": 34962
    },
    {
      "buffer": 0,
      "byteLength": 33864,
      "byteOffset": 68408,
      "byteStride": 12,
      "name": "floatBufferViews",
      "target": 34962
    },
    {
      "buffer": 0,
      "byteLength": 22576,
      "byteOffset": 102272,
      "byteStride": 16,
      "name": "floatBufferViews",
      "target": 34962
    },
    {
      "buffer": 0,
      "byteLength": 484,
      "byteOffset": 124848,
      "name": "floatBufferViews"
    },
    {
      "buffer": 0,
      "byteLength": 1936,
      "byteOffset": 125332,
      "byteStride": 16,
      "name": "floatBufferViews"
    }
  ],
  "buffers": [
    {
      "byteLength": 127268,
      "uri": "scene.bin"
    }
  ],
  "images": [
    {
      "uri": "textures/Material_baseColor.png"
    },
    {
      "uri": "textures/Material_metallicRoughness.png"
    },
    {
      "uri": "textures/Material_normal.png"
    }
  ],
  "materials": [
    {
      "doubleSided": true,
      "name": "Material",
      "normalTexture": {
        "index": 2
      },
      "pbrMetallicRoughness": {
        "baseColorTexture": {
          "index": 0
        },
        "metallicRoughnessTexture": {
          "index": 1
        }
      }
    }
  ],
  "meshes": [
    {
      "name": "Object_0",
      "primitives": [
        {
          "attributes": {
            "NORMAL": 1,
            "POSITION": 0,
            "TANGENT": 2,
            "TEXCOORD_0": 3,
            "TEXCOORD_1": 4,
            "TEXCOORD_2": 5,
            "TEXCOORD_3": 6
          },
          "indices": 7,
          "material": 0,
          "mode": 4
        }
      ]
    },
    {
      "name": "Object_1",
      "primitives": [
        {
          "attributes": {
            "NORMAL": 9,
            "POSITION": 8,
            "TANGENT": 10,
            "TEXCOORD_0": 11,
            "TEXCOORD_1": 12,
            "TEXCOORD_2": 13,
            "TEXCOORD_3": 14
          },
          "indices": 15,
          "material": 0,
          "mode": 4
        }
      ]
    },
    {
      "name": "Object_2",
      "primitives": [
        {
          "attributes": {
            "NORMAL": 17,
            "POSITION": 16,
            "TANGENT": 18,
            "TEXCOORD_0": 19,
            "TEXCOORD_1": 20,
            "TEXCOORD_2": 21,
            "TEXCOORD_3": 22
          },
          "indices": 23,
          "material": 0,
          "mode": 4
        }
      ]
    }
  ],
  "nodes": [
    {
      "children": [
        1
      ],
      "matrix": [
        1.0,
        0.0,
        0.0,
        0.0,
        0.0,
        2.220446049250313e-16,
        -1.0,
        0.0,
        0.0,
        1.0,
        2.220446049250313e-16,
        0.0,
        0.0,
        0.0,
        0.0,
        1.0
      ],
      "name": "Sketchfab_model"
    },
    {
      "children": [
        2
      ],
      "name": "root"
    },
    {
      "children": [
        3,
        7
      ],
      "matrix": [
        1.0,
        0.0,
        0.0,
        0.0,
        0.0,
        2.220446049250313e-16,
        1.0,
        0.0,
        0.0,
        -1.0,
        2.220446049250313e-16,
        0.0,
        0.0,
        0.0,
        0.0,
        1.0
      ],
      "name": "GLTF_SceneRootNode"
    },
    {
      "children": [
        4,
        5
      ],
      "matrix": [
        1.0,
        0.0,
        0.0,
        0.0,
        0.0,
        1.0,
        0.0,
        0.0,
        0.0,
        0.0,
        1.0,
        0.0,
        0.0,
        3.2322850227355957,
        0.0,
        1.0
      ],
      "name": "Cone_3"
    },
    {
      "mesh": 0,
      "name": "Object_4"
    },
    {
      "children": [
        6
      ],
      "matrix": [
        1.0,
        0.0,
        0.0,
        0.0,
        0.0,
        1.0,
        0.0,
        0.0,
        0.0,
        0.0,
        1.0,
        0.0,
        0.0,
        -2.46048641204834,
        0.0,
        1.0
      ],
      "name": "Cylinder_2"
    },
    {
      "mesh": 1,
      "name": "Object_6"
    },
    {
      "children": [
        8
      ],
      "name": "Cylinder.001_4",
      "translation": [
        0.0,
        0.7717986106872559,
        0.0
      ]
    },
    {
      "mesh": 2,
      "name": "Object_8"
    }
  ],
  "samplers": [
    {
      "magFilter": 9729,
      "minFilter": 9987,
      "wrapS": 10497,
      "wrapT": 10497
    }
  ],
  "scene": 0,
  "scenes": [
    {
      "name": "Sketchfab_Scene",
      "nodes": [
        0
      ]
    }
  ],
  "textures": [
    {
      "sampler": 0,
      "source": 0
    },
    {
      "sampler": 0,
      "source": 1
    },
    {
      "sampler": 0,
      "source": 2
    }
  ]
}
