{
  "accessors": [
    {
      "bufferView": 2,
      "componentType": 5126,
      "count": 1183,
      "max": [
        27.182458877563477,
        23.433500289916992,
        18.586963653564453
      ],
      "min": [
        -0.6474484205245972,
        -23.947479248046875,
        0.1233939528465271
      ],
      "type": "VEC3"
    },
    {
      "bufferView": 2,
      "byteOffset": 14196,
      "componentType": 5126,
      "count": 1183,
      "max": [
        1.0,
        1.0,
        1.0
      ],
      "min": [
        -1.0,
        -1.0,
        -1.0
      ],
      "type": "VEC3"
    },
    {
      "bufferView": 1,
      "componentType": 5126,
      "count": 1183,
      "max": [
        0.9966145753860474,
        0.9629255533218384
      ],
      "min": [
        0.049532730132341385,
        0.01750659942626953
      ],
      "type": "VEC2"
    },
    {
      "bufferView": 0,
      "componentType": 5125,
      "count": 1233,
      "type": "SCALAR"
    },
    {
      "bufferView": 2,
      "byteOffset": 28392,
      "componentType": 5126,
      "count": 513,
      "max": [
        12.239975929260254,
        12.239975929260254,
        15.228618621826172
      ],
      "min": [
        -12.239975929260254,
        -12.239975929260254,
        -106.07005310058594
      ],
      "type": "VEC3"
    },
    {
      "bufferView": 2,
      "byteOffset": 34548,
      "componentType": 5126,
      "count": 513,
      "max": [
        0.965925931930542,
        0.965925931930542,
        1.0
      ],
      "min": [
        -0.965925931930542,
        -0.9659260511398315,
        -1.0
      ],
      "type": "VEC3"
    },
    {
      "bufferView": 1,
      "byteOffset": 9464,
      "componentType": 5126,
      "count": 513,
      "max": [
        0.4063384532928467,
        0.8654333353042603
      ],
      "min": [
        0.14633846282958984,
        0.6054333448410034
      ],
      "type": "VEC2"
    },
    {
      "bufferView": 0,
      "byteOffset": 4932,
      "componentType": 5125,
      "count": 696,
      "type": "SCALAR"
    },
    {
      "bufferView": 2,
      "byteOffset": 40704,
      "componentType": 5126,
      "count": 80,
      "max": [
        23.54456901550293,
        24.069442749023438,
        5.705500602722168
      ],
      "min": [
        -2.0000863075256348,
        -14.032023429870605,
        -1.228867530822754
      ],
      "type": "VEC3"
    },
    {
      "bufferView": 2,
      "byteOffset": 41664,
      "componentType": 5126,
      "count": 80,
      "max": [
        0.9998044967651367,
        0.14573174715042114,
        1.0
      ],
      "min": [
        -0.9998045563697815,
        -0.09057711064815521,
        -1.0
      ],
      "type": "VEC3"
    },
    {
      "bufferView": 1,
      "byteOffset": 13568,
      "componentType": 5126,
      "count": 80,
      "max": [
        0.3578737676143646,
        0.8921263217926025
      ],
      "min": [
        0.10787376761436462,
        0.6421263217926025
      ],
      "type": "VEC2"
    },
    {
      "bufferView": 0,
      "byteOffset": 7716,
      "componentType": 5125,
      "count": 120,
      "type": "SCALAR"
    },
    {
      "bufferView": 2,
      "byteOffset": 42624,
      "componentType": 5126,
      "count": 44,
      "max": [
        8.022424697875977,
        10.566627502441406,
        7.9490180015563965
      ],
      "min": [
        -8.022424697875977,
        -10.566627502441406,
        0.0
      ],
      "type": "VEC3"
    },
    {
      "bufferView": 2,
      "byteOffset": 43152,
      "componentType": 5126,
      "count": 44,
      "max": [
        1.0,
        2.615224730107002e-07,
        1.0
      ],
      "min": [
        -1.0,
        -1.0,
        -1.0
      ],
      "type": "VEC3"
    },
    {
      "bufferView": 1,
      "byteOffset": 14208,
      "componentType": 5126,
      "count": 44,
      "max": [
        1.0,
        1.0
      ],
      "min": [
        0.0,
        0.0
      ],
      "type": "VEC2"
    },
    {
      "bufferView": 0,
      "byteOffset": 8196,
      "componentType": 5125,
      "count": 78,
      "type": "SCALAR"
    },
    {
      "bufferView": 2,
      "byteOffset": 43680,
      "componentType": 5126,
      "count": 40,
      "max": [
        79.84175872802734,
        16.629026412963867,
        7.644796848297119
      ],
      "min": [
        -79.84175872802734,
        -17.55960464477539,
        -6.033514022827148
      ],
      "type": "VEC3"
    },
    {
      "bufferView": 2,
      "byteOffset": 44160,
      "componentType": 5126,
      "count": 40,
      "max": [
        0.9654474854469299,
        1.0,
        0.9944939613342285
      ],
      "min": [
        -0.9654474258422852,
        -0.5856075882911682,
        -0.8846503496170044
      ],
      "type": "VEC3"
    },
    {
      "bufferView": 1,
      "byteOffset": 14560,
      "componentType": 5126,
      "count": 40,
      "max": [
        1.0,
        1.0
      ],
      "min": [
        0.0,
        0.0
      ],
      "type": "VEC2"
    },
    {
      "bufferView": 0,
      "byteOffset": 8508,
      "componentType": 5125,
      "count": 60,
      "type": "SCALAR"
    },
    {
      "bufferView": 2,
      "byteOffset": 44640,
      "componentType": 5126,
      "count": 44,
      "max": [
        8.022424697875977,
        10.566627502441406,
        7.9490180015563965
      ],
      "min": [
        -8.022424697875977,
        -10.566627502441406,
        0.0
      ],
      "type": "VEC3"
    },
    {
      "bufferView": 2,
      "byteOffset": 45168,
      "componentType": 5126,
      "count": 44,
      "max": [
        1.0,
        2.615224730107002e-07,
        1.0
      ],
      "min": [
        -1.0,
        -1.0,
        -1.0
      ],
      "type": "VEC3"
    },
    {
      "bufferView": 1,
      "byteOffset": 14880,
      "componentType": 5126,
      "count": 44,
      "max": [
        1.0,
        1.0
      ],
      "min": [
        0.0,
        0.0
      ],
      "type": "VEC2"
    },
    {
      "bufferView": 0,
      "byteOffset": 8748,
      "componentType": 5125,
      "count": 78,
      "type": "SCALAR"
    },
    {
      "bufferView": 2,
      "byteOffset": 45696,
      "componentType": 5126,
      "count": 513,
      "max": [
        12.239975929260254,
        12.239975929260254,
        15.228618621826172
      ],
      "min": [
        -12.239975929260254,
        -12.239975929260254,
        -106.07005310058594
      ],
      "type": "VEC3"
    },
    {
      "bufferView": 2,
      "byteOffset": 51852,
      "componentType": 5126,
      "count": 513,
      "max": [
        0.965925931930542,
        0.965925931930542,
        1.0
      ],
      "min": [
        -0.965925931930542,
        -0.9659260511398315,
        -1.0
      ],
      "type": "VEC3"
    },
    {
      "bufferView": 1,
      "byteOffset": 15232,
      "componentType": 5126,
      "count": 513,
      "max": [
        0.4063384532928467,
        0.8654333353042603
      ],
      "min": [
        0.14633846282958984,
        0.6054333448410034
      ],
      "type": "VEC2"
    },
    {
      "bufferView": 0,
      "byteOffset": 9060,
      "componentType": 5125,
      "count": 696,
      "type": "SCALAR"
    }
  ],
  "asset": {
    "extras": {
      "author": "Albn (https://sketchfab.com/luvarv)",
      "license": "CC-BY-4.0 (http://creativecommons.org/licenses/by/4.0/)",
      "source": "https://sketchfab.com/3d-models/lowpoly-car-saab-900-41dbc827790b4d67a75d1a41db6f6ae4",
      "title": "Lowpoly Car - Saab 900"
    },
    "generator": "Sketchfab-12.66.0",
    "version": "2.0"
  },
  "bufferViews": [
    {
      "buffer": 0,
      "byteLength": 11844,
      "name": "floatBufferViews",
      "target": 34963
    },
    {
      "buffer": 0,
      "byteLength": 19336,
      "byteOffset": 11844,
      "byteStride": 8,
      "name": "floatBufferViews",
      "target": 34962
    },
    {
      "buffer": 0,
      "byteLength": 58008,
      "byteOffset": 31180,
      "byteStride": 12,
      "name": "floatBufferViews",
      "target": 34962
    }
  ],
  "buffers": [
    {
      "byteLength": 89188,
      "uri": "scene.bin"
    }
  ],
  "images": [
    {
      "uri": "textures/Material_280_baseColor.png"
    }
  ],
  "materials": [
    {
      "doubleSided": true,
      "name": "Material_280",
      "pbrMetallicRoughness": {
        "baseColorTexture": {
          "index": 0
        },
        "metallicFactor": 0.0,
        "roughnessFactor": 0.6
      }
    }
  ],
  "meshes": [
    {
      "name": "Box012_Material #280_0",
      "primitives": [
        {
          "attributes": {
            "NORMAL": 1,
            "POSITION": 0,
            "TEXCOORD_0": 2
          },
          "indices": 3,
          "material": 0,
          "mode": 4
        }
      ]
    },
    {
      "name": "Cylinder007_Material #280_0",
      "primitives": [
        {
          "attributes": {
            "NORMAL": 5,
            "POSITION": 4,
            "TEXCOORD_0": 6
          },
          "indices": 7,
          "material": 0,
          "mode": 4
        }
      ]
    },
    {
      "name": "Box014_Material #280_0",
      "primitives": [
        {
          "attributes": {
            "NORMAL": 9,
            "POSITION": 8,
            "TEXCOORD_0": 10
          },
          "indices": 11,
          "material": 0,
          "mode": 4
        }
      ]
    },
    {
      "name": "Box015_Material #280_0",
      "primitives": [
        {
          "attributes": {
            "NORMAL": 13,
            "POSITION": 12,
            "TEXCOORD_0": 14
          },
          "indices": 15,
          "material": 0,
          "mode": 4
        }
      ]
    },
    {
      "name": "Box016_Material #280_0",
      "primitives": [
        {
          "attributes": {
            "NORMAL": 17,
            "POSITION": 16,
            "TEXCOORD_0": 18
          },
          "indices": 19,
          "material": 0,
          "mode": 4
        }
      ]
    },
    {
      "name": "Box017_Material #280_0",
      "primitives": [
        {
          "attributes": {
            "NORMAL": 21,
            "POSITION": 20,
            "TEXCOORD_0": 22
          },
          "indices": 23,
          "material": 0,
          "mode": 4
        }
      ]
    },
    {
      "name": "Cylinder008_Material #280_0",
      "primitives": [
        {
          "attributes": {
            "NORMAL": 25,
            "POSITION": 24,
            "TEXCOORD_0": 26
          },
          "indices": 27,
          "material": 0,
          "mode": 4
        }
      ]
    }
  ],
  "nodes": [
    {
      "children": [
        1
      ],
      "matrix": [
        0.028765449300408363,
        0.0,
        0.0,
        0.0,
        0.0,
        6.387212825400193e-18,
        -0.028765449300408363,
        0.0,
        0.0,
        0.028765449300408363,
        6.387212825400193e-18,
        0.0,
        0.0,
        0.0,
        0.0,
        1.0
      ],
      "name": "Sketchfab_model"
    },
    {
      "children": [
        2
      ],
      "matrix": [
        1.0,
        0.0,
        0.0,
        0.0,
        0.0,
        0.0,
        1.0,
        0.0,
        0.0,
        -1.0,
        0.0,
        0.0,
        0.0,
        0.0,
        0.0,
        1.0
      ],
      "name": "0fc6e989366a451fa491e60c9df4e4d1.fbx"
    },
    {
      "children": [
        3,
        6,
        9,
        12,
        14,
        16,
        18
      ],
      "name": "RootNode"
    },
    {
      "children": [
        4
      ],
      "matrix": [
        2.469974994659424,
        0.0,
        0.0,
        0.0,
        0.0,
        7.992758003200044e-16,
        -3.5996181964874268,
        0.0,
        0.0,
        2.4656527042388916,
        5.474848805950598e-16,
        0.0,
        -350.0,
        8.22517204284668,
        138.20791625976563,
        1.0
      ],
      "name": "Box012"
    },
    {
      "children": [
        5
      ],
      "matrix": [
        1.0,
        0.0,
        -0.0,
        0.0,
        0.0,
        1.0,
        0.0,
        0.0,
        0.0,
        0.0,
        1.0,
        0.0,
        -13.267496109008789,
        0.0,
        0.0,
        1.0
      ],
      "name": "Object_4"
    },
    {
      "mesh": 0,
      "name": "Box012_Material #280_0"
    },
    {
      "children": [
        7
      ],
      "matrix": [
        9.070051326889388e-08,
        -1.3490985605119392e-23,
        1.0193500518798788,
        0.0,
        -8.158453415338209e-08,
        1.0193500518798795,
        7.259291471517556e-15,
        0.0,
        -0.5567156672477683,
        -4.455720415625293e-08,
        4.953587501279471e-08,
        0.0,
        -350.0,
        12.697942733764648,
        182.62164306640625,
        1.0
      ],
      "name": "Cylinder007"
    },
    {
      "children": [
        8
      ],
      "matrix": [
        1.0,
        0.0,
        -0.0,
        0.0,
        0.0,
        1.0,
        0.0,
        0.0,
        0.0,
        0.0,
        1.0,
        0.0,
        7.399965852528112e-06,
        1.9854003312502755e-06,
        45.42066192626953,
        1.0
      ],
      "name": "Object_7"
    },
    {
      "mesh": 1,
      "name": "Cylinder007_Material #280_0"
    },
    {
      "children": [
        10
      ],
      "matrix": [
        2.653484344482422,
        0.0,
        0.0,
        0.0,
        0.0,
        2.4988284235363387e-17,
        -0.11253722757101059,
        0.0,
        0.0,
        0.7323018312454224,
        1.6260367080476676e-16,
        0.0,
        -349.9999694824219,
        35.57695770263672,
        131.75477600097656,
        1.0
      ],
      "name": "Box014"
    },
    {
      "children": [
        11
      ],
      "matrix": [
        1.0,
        0.0,
        -0.0,
        0.0,
        0.0,
        1.0,
        0.0,
        0.0,
        0.0,
        0.0,
        1.0,
        0.0,
        -10.772241592407227,
        118.44013977050781,
        0.0,
        1.0
      ],
      "name": "Object_10"
    },
    {
      "mesh": 2,
      "name": "Box014_Material #280_0"
    },
    {
      "children": [
        13
      ],
      "matrix": [
        -1.2635507583618022,
        -1.5474036265389509e-16,
        1.9079085702064978e-07,
        0.0,
        3.444325984294779e-09,
        -1.0130003678723487e-17,
        0.022810740396380168,
        0.0,
        -7.269886466828397e-17,
        0.5936314463615417,
        1.9771898996763518e-16,
        0.0,
        -349.9999694824219,
        15.60521411895752,
        53.72235107421875,
        1.0
      ],
      "name": "Box015"
    },
    {
      "mesh": 3,
      "name": "Box015_Material #280_0"
    },
    {
      "children": [
        15
      ],
      "matrix": [
        0.2975570559501648,
        0.0,
        0.0,
        0.0,
        0.0,
        6.607093893110978e-17,
        -0.2975570559501648,
        0.0,
        0.0,
        0.2975570559501648,
        6.607093893110978e-17,
        0.0,
        -349.9999694824219,
        38.743343353271484,
        209.99932861328125,
        1.0
      ],
      "name": "Box016"
    },
    {
      "mesh": 4,
      "name": "Box016_Material #280_0"
    },
    {
      "children": [
        17
      ],
      "matrix": [
        1.2635507583617587,
        3.344591008939424e-23,
        -3.815817137819803e-07,
        0.0,
        -6.888651963908097e-09,
        5.0650018393617434e-18,
        -0.022810740396379387,
        0.0,
        1.5713293549826557e-23,
        0.5936314463615417,
        1.3181265997842345e-16,
        0.0,
        -349.9999694824219,
        21.39984893798828,
        220.7890167236328,
        1.0
      ],
      "name": "Box017"
    },
    {
      "mesh": 5,
      "name": "Box017_Material #280_0"
    },
    {
      "children": [
        19
      ],
      "matrix": [
        9.070051326889388e-08,
        -1.3490985605119392e-23,
        1.0193500518798788,
        0.0,
        -8.158453415338209e-08,
        1.0193500518798795,
        7.259291471517556e-15,
        0.0,
        -0.5567156672477683,
        -4.455720415625293e-08,
        4.953587501279471e-08,
        0.0,
        -350.0,
        12.697946548461914,
        90.09362030029297,
        1.0
      ],
      "name": "Cylinder008"
    },
    {
      "children": [
        20
      ],
      "matrix": [
        1.0,
        0.0,
        -0.0,
        0.0,
        0.0,
        1.0,
        0.0,
        0.0,
        0.0,
        0.0,
        1.0,
        0.0,
        7.399965852528112e-06,
        1.9854003312502755e-06,
        45.42066192626953,
        1.0
      ],
      "name": "Object_19"
    },
    {
      "mesh": 6,
      "name": "Cylinder008_Material #280_0"
    }
  ],
  "samplers": [
    {
      "magFilter": 9729,
      "minFilter": 9987,
      "wrapS": 10497,
      "wrapT": 10497
    }
  ],
  "scene": 0,
  "scenes": [
    {
      "name": "Sketchfab_Scene",
      "nodes": [
        0
      ]
    }
  ],
  "textures": [
    {
      "sampler": 0,
      "source": 0
    }
  ]
}
